HIERARCHY
ROOT Model
{
	OFFSET 0 0 0
	CHANNELS 6 Xposition Yposition Zposition Zrotation Xrotation Yrotation
	JOINT Model1
	{
		OFFSET 0 -2.25479 2.99384
		CHANNELS 3 Zrotation Xrotation Yrotation
		JOINT Model2
		{
			OFFSET 12.111 0 0
			CHANNELS 3 Zrotation Xrotation Yrotation
			JOINT Model3
			{
				OFFSET 11.5502 0 0
				CHANNELS 3 Zrotation Xrotation Yrotation
				JOINT Model4
				{
					OFFSET 11.781 0 0
					CHANNELS 3 Zrotation Xrotation Yrotation
					JOINT Model5
					{
						OFFSET 20.0601 0 0
						CHANNELS 3 Zrotation Xrotation Yrotation
						JOINT Model6
						{
							OFFSET 11.1962 0 0
							CHANNELS 3 Zrotation Xrotation Yrotation
							End Site
							{
								OFFSET 0 0 0
							}
						}
					}
					JOINT Model7
					{
						OFFSET 10.8223 0.417534 3.51114
						CHANNELS 3 Zrotation Xrotation Yrotation
						JOINT Model8
						{
							OFFSET -6.07944 0 0
							CHANNELS 3 Zrotation Xrotation Yrotation
							JOINT Model9
							{
								OFFSET -0.277405 10.39 -0.051239
								CHANNELS 3 Zrotation Xrotation Yrotation
								JOINT Model10
								{
									OFFSET -3.43909 -0.282043 1.86679
									CHANNELS 3 Zrotation Xrotation Yrotation
									JOINT Model11
									{
										OFFSET 13.0269 0 0
										CHANNELS 3 Zrotation Xrotation Yrotation
										JOINT Model12
										{
											OFFSET 10.8866 0 0
											CHANNELS 3 Zrotation Xrotation Yrotation
											JOINT Model13
											{
												OFFSET 16.7317 0 0
												CHANNELS 3 Zrotation Xrotation Yrotation
												JOINT Model14
												{
													OFFSET 11.8292 0 0
													CHANNELS 3 Zrotation Xrotation Yrotation
													JOINT Model15
													{
														OFFSET 4.82751 -3.73566 -0.836517
														CHANNELS 3 Zrotation Xrotation Yrotation
														JOINT Model16
														{
															OFFSET 3.75311 -0.0582886 -0.0186462
															CHANNELS 3 Zrotation Xrotation Yrotation
															JOINT Model17
															{
																OFFSET 2.88689 0.0192337 0.014801
																CHANNELS 3 Zrotation Xrotation Yrotation
																End Site
																{
																	OFFSET 0 0 0
																}
															}
														}
													}
													JOINT Model18
													{
														OFFSET 9.72197 -3.06458 0.23877
														CHANNELS 3 Zrotation Xrotation Yrotation
														JOINT Model19
														{
															OFFSET 4.61131 0 0
															CHANNELS 3 Zrotation Xrotation Yrotation
															JOINT Model20
															{
																OFFSET 2.8969 -7.62939e-006 0
																CHANNELS 3 Zrotation Xrotation Yrotation
																End Site
																{
																	OFFSET 0 0 0
																}
															}
														}
													}
													JOINT Model21
													{
														OFFSET 9.54431 -0.745064 0.588928
														CHANNELS 3 Zrotation Xrotation Yrotation
														JOINT Model22
														{
															OFFSET 5.33978 0 0
															CHANNELS 3 Zrotation Xrotation Yrotation
															JOINT Model23
															{
																OFFSET 3.03619 7.62939e-006 0
																CHANNELS 3 Zrotation Xrotation Yrotation
																End Site
																{
																	OFFSET 0 0 0
																}
															}
														}
													}
													JOINT Model24
													{
														OFFSET 9.47758 1.51286 0.485107
														CHANNELS 3 Zrotation Xrotation Yrotation
														JOINT Model25
														{
															OFFSET 4.96136 7.62939e-006 0
															CHANNELS 3 Zrotation Xrotation Yrotation
															JOINT Model26
															{
																OFFSET 2.51965 0 0
																CHANNELS 3 Zrotation Xrotation Yrotation
																End Site
																{
																	OFFSET 0 0 0
																}
															}
														}
													}
													JOINT Model27
													{
														OFFSET 9.34247 3.34117 -0.239288
														CHANNELS 3 Zrotation Xrotation Yrotation
														JOINT Model28
														{
															OFFSET 3.28259 2.28882e-005 0
															CHANNELS 3 Zrotation Xrotation Yrotation
															JOINT Model29
															{
																OFFSET 2.1292 0 0
																CHANNELS 3 Zrotation Xrotation Yrotation
																End Site
																{
																	OFFSET 0 0 0
																}
															}
														}
													}
												}
											}
										}
									}
								}
							}
						}
					}
					JOINT Model30
					{
						OFFSET 10.8223 0.4179 -3.51108
						CHANNELS 3 Zrotation Xrotation Yrotation
						JOINT Model31
						{
							OFFSET 6.07944 0 0
							CHANNELS 3 Zrotation Xrotation Yrotation
							JOINT Model32
							{
								OFFSET 0.277405 -10.39 0.051239
								CHANNELS 3 Zrotation Xrotation Yrotation
								JOINT Model33
								{
									OFFSET 3.43909 0.282043 -1.86679
									CHANNELS 3 Zrotation Xrotation Yrotation
									JOINT Model34
									{
										OFFSET -13.0269 0 0
										CHANNELS 3 Zrotation Xrotation Yrotation
										JOINT Model35
										{
											OFFSET -10.8866 0 0
											CHANNELS 3 Zrotation Xrotation Yrotation
											JOINT Model36
											{
												OFFSET -16.7317 0 0
												CHANNELS 3 Zrotation Xrotation Yrotation
												JOINT Model37
												{
													OFFSET -11.8292 0 0
													CHANNELS 3 Zrotation Xrotation Yrotation
													JOINT Model38
													{
														OFFSET -4.82751 3.73566 0.836517
														CHANNELS 3 Zrotation Xrotation Yrotation
														JOINT Model39
														{
															OFFSET -3.75311 0.0582886 0.0186462
															CHANNELS 3 Zrotation Xrotation Yrotation
															JOINT Model40
															{
																OFFSET -2.88687 -0.0192337 -0.014801
																CHANNELS 3 Zrotation Xrotation Yrotation
																End Site
																{
																	OFFSET 0 0 0
																}
															}
														}
													}
													JOINT Model41
													{
														OFFSET -9.72198 3.06459 -0.23877
														CHANNELS 3 Zrotation Xrotation Yrotation
														JOINT Model42
														{
															OFFSET -4.6113 0 0
															CHANNELS 3 Zrotation Xrotation Yrotation
															JOINT Model43
															{
																OFFSET -2.89691 0 0
																CHANNELS 3 Zrotation Xrotation Yrotation
																End Site
																{
																	OFFSET 0 0 0
																}
															}
														}
													}
													JOINT Model44
													{
														OFFSET -9.54431 0.745064 -0.588928
														CHANNELS 3 Zrotation Xrotation Yrotation
														JOINT Model45
														{
															OFFSET -5.33978 0 0
															CHANNELS 3 Zrotation Xrotation Yrotation
															JOINT Model46
															{
																OFFSET -3.03619 -1.52588e-005 0
																CHANNELS 3 Zrotation Xrotation Yrotation
																End Site
																{
																	OFFSET 0 0 0
																}
															}
														}
													}
													JOINT Model47
													{
														OFFSET -9.4776 -1.51286 -0.485107
														CHANNELS 3 Zrotation Xrotation Yrotation
														JOINT Model48
														{
															OFFSET -4.96136 -1.52588e-005 0
															CHANNELS 3 Zrotation Xrotation Yrotation
															JOINT Model49
															{
																OFFSET -2.51965 0 0
																CHANNELS 3 Zrotation Xrotation Yrotation
																End Site
																{
																	OFFSET 0 0 0
																}
															}
														}
													}
													JOINT Model50
													{
														OFFSET -9.34247 -3.34118 0.239288
														CHANNELS 3 Zrotation Xrotation Yrotation
														JOINT Model51
														{
															OFFSET -3.28259 -2.28882e-005 0
															CHANNELS 3 Zrotation Xrotation Yrotation
															JOINT Model52
															{
																OFFSET -2.12921 0 0
																CHANNELS 3 Zrotation Xrotation Yrotation
																End Site
																{
																	OFFSET 0 0 0
																}
															}
														}
													}
												}
											}
										}
									}
								}
							}
						}
					}
				}
			}
		}
	}
	JOINT Model53
	{
		OFFSET 4.38025 -2.14632 -1.11517
		CHANNELS 3 Zrotation Xrotation Yrotation
		JOINT Model54
		{
			OFFSET 0 0 4.94998
			CHANNELS 3 Zrotation Xrotation Yrotation
			JOINT Model55
			{
				OFFSET 18.5642 0 0
				CHANNELS 3 Zrotation Xrotation Yrotation
				JOINT Model56
				{
					OFFSET 21.2884 0 0
					CHANNELS 3 Zrotation Xrotation Yrotation
					JOINT Model57
					{
						OFFSET 30.261 0 0
						CHANNELS 3 Zrotation Xrotation Yrotation
						JOINT Model58
						{
							OFFSET 11.7259 0 0
							CHANNELS 3 Zrotation Xrotation Yrotation
							JOINT Model59
							{
								OFFSET 10.682 0 0
								CHANNELS 3 Zrotation Xrotation Yrotation
								End Site
								{
									OFFSET 0 0 0
								}
							}
						}
					}
				}
			}
		}
	}
	JOINT Model60
	{
		OFFSET -4.38025 -2.14632 -1.11517
		CHANNELS 3 Zrotation Xrotation Yrotation
		JOINT Model61
		{
			OFFSET 0 0 -4.94998
			CHANNELS 3 Zrotation Xrotation Yrotation
			JOINT Model62
			{
				OFFSET -18.5642 0 0
				CHANNELS 3 Zrotation Xrotation Yrotation
				JOINT Model63
				{
					OFFSET -21.2884 0 0
					CHANNELS 3 Zrotation Xrotation Yrotation
					JOINT Model64
					{
						OFFSET -30.261 0 0
						CHANNELS 3 Zrotation Xrotation Yrotation
						JOINT Model65
						{
							OFFSET -11.7259 0 0
							CHANNELS 3 Zrotation Xrotation Yrotation
							JOINT Model66
							{
								OFFSET -10.682 0 0
								CHANNELS 3 Zrotation Xrotation Yrotation
								End Site
								{
									OFFSET 0 0 0
								}
							}
						}
					}
				}
			}
		}
	}
}
MOTION
Frames: 6
Frame Time: 0.033333
-350.704 170.012 -338.403 -94.3343 -72.4431 -96.505 -180 4.29621e-031 -90 1.84644 -0.955387 -0.926448 3.67797 -1.94045 -1.82201 3.67796 -1.94001 -1.82204 -9.14171 7.29786 1.26024 15.1576 7.41847 0.0538111 120.092 75.5343 58.4939 -12.4274 4.9304 4.63744 -167.277 84.4999 48.8109 143.241 -4.45961 21.7665 2.35459e-006 14.3991 3.01601e-005 -51.2526 -25.1382 0.526343 2.54033e-006 -38.3718 1.74511e-006 4.5664 0.731126 18.1837 -72.0648 39.0385 39.3397 33.3638 2.10362 14.835 0.588947 0.308273 6.35287 -99.6409 81.413 100.35 -0.0181409 2.7782e-005 -0.117315 -0.124139 0.00241112 -0.799296 -79.8382 79.5773 80.5374 -0.000225783 -0.000220919 2.21842e-005 -0.000956235 0.0001229 -2.73346e-005 -66.7416 80.4058 67.2171 -0.000437139 1.59488e-005 -2.73308e-005 -0.000136613 -0.000109287 -5.46551e-005 -6.42159 81.2158 8.01779 -0.000218575 1.69039e-005 0.000212131 0.000901572 -0.000184807 -0.000218578 -59.9282 75.5373 58.5147 -7.83096 5.28397 3.70769 -167.277 84.4999 48.8109 -174.53 13.1279 33.0389 -8.45206e-006 27.921 3.29199e-005 -79.8716 10.8915 0.61033 -5.14234e-006 15.7835 2.13953e-006 -11.9556 0.724284 -6.90865 -72.0648 39.0385 39.3397 33.3638 2.10361 14.835 0.588946 0.308273 6.35287 -99.6409 81.413 100.35 -0.0181409 3.00738e-005 -0.117315 -0.124139 0.00241113 -0.799296 -79.8382 79.5773 80.5374 -0.000260653 -0.000218571 2.3579e-005 -0.000956236 0.00012299 -2.73092e-005 -66.7416 80.4058 67.2171 -0.000437139 1.48768e-005 -2.73118e-005 -0.000136613 -0.000109289 -5.46294e-005 -6.42159 81.2158 8.01779 -0.000218572 1.95756e-005 0.000212307 0.000901575 -0.00019125 -0.000218553 0.000811311 0.56661 89.91 -31.2867 -4.41313 -18.5951 5.79667e-007 0.827838 -4.83604e-009 32.211 3.41854 0.230121 -5.44593e-008 5.0673 -5.83537e-008 -50.9388 -2.9459 1.93181 -35.4947 -3.52572e-005 -8.83107e-008 -180 -0.566579 -90.09 -14.6804 -5.27031 -15.6926 -6.69967e-007 2.21042 -2.06606e-008 48.7711 -3.97771 0.0403313 2.70051e-007 -6.0566 -2.8545e-007 -78.8927 -7.49701 1.88566 -36.2252 -2.07911 0.0856305 
-350.827 170.022 -338.391 -94.1009 -72.4722 -96.2286 -180 4.29621e-031 -90 1.84815 -0.942881 -0.934838 3.68141 -1.91574 -1.83916 3.68141 -1.9153 -1.83919 -9.44211 7.20937 1.49393 15.3366 7.38677 -0.205432 120.092 75.5343 58.4939 -12.2433 5.01615 4.63042 -167.277 84.4999 48.8109 143.2 -4.40057 22.0075 2.29316e-006 14.512 3.01754e-005 -51.0882 -24.7577 0.523486 2.5183e-006 -37.8004 1.73152e-006 4.63854 0.748103 18.314 -72.0648 39.0385 39.3397 33.3638 2.10362 14.835 0.588947 0.308273 6.35287 -99.6409 81.413 100.35 -0.0181409 2.7782e-005 -0.117315 -0.124139 0.00241112 -0.799296 -79.8382 79.5773 80.5374 -0.000225783 -0.000220919 2.21842e-005 -0.000956235 0.0001229 -2.73346e-005 -66.7416 80.4058 67.2171 -0.000437139 1.59488e-005 -2.73308e-005 -0.000136613 -0.000109287 -5.46551e-005 -6.42159 81.2158 8.01779 -0.000218575 1.69039e-005 0.000212131 0.000901572 -0.000184807 -0.000218578 -59.9282 75.5373 58.5147 -7.76194 5.14124 3.63768 -167.277 84.4999 48.8109 -174.654 13.2512 33.2206 -8.54821e-006 28.0687 3.2965e-005 -79.8574 10.7125 0.609943 -5.13193e-006 15.5149 2.13672e-006 -11.8003 0.680097 -6.57387 -72.0648 39.0385 39.3397 33.3638 2.10361 14.835 0.588946 0.308273 6.35287 -99.6409 81.413 100.35 -0.0181409 3.00738e-005 -0.117315 -0.124139 0.00241113 -0.799296 -79.8382 79.5773 80.5374 -0.000260653 -0.000218571 2.3579e-005 -0.000956236 0.00012299 -2.73092e-005 -66.7416 80.4058 67.2171 -0.000437139 1.48768e-005 -2.73118e-005 -0.000136613 -0.000109289 -5.46294e-005 -6.42159 81.2158 8.01779 -0.000218572 1.95756e-005 0.000212307 0.000901575 -0.00019125 -0.000218553 0.000811311 0.56661 89.91 -31.3622 -4.50876 -18.7552 5.79659e-007 0.728523 -4.83593e-009 32.1468 3.52624 0.193683 -5.4294e-008 5.22897 -5.83686e-008 -50.8746 -2.89249 1.89703 -35.4947 -3.52031e-005 -3.13354e-008 -180 -0.566579 -90.09 -14.6427 -5.17397 -15.4793 -6.69962e-007 2.22618 -2.06608e-008 48.7441 -4.04421 0.0400037 2.69551e-007 -6.15631 -2.85503e-007 -78.86 -7.63125 1.94596 -36.2578 -2.17248 0.0882355 
-350.92 170.024 -338.342 -93.9773 -72.6164 -96.1478 -180 4.29621e-031 -90 1.86654 -0.959177 -0.96092 3.71751 -1.94945 -1.89049 3.71751 -1.94902 -1.89052 -9.79326 7.14312 1.59703 15.4196 7.35048 -0.278141 120.092 75.5343 58.4939 -11.939 4.94951 4.53084 -167.277 84.4999 48.8109 143.198 -4.41402 22.3576 2.29284e-006 14.5126 3.01755e-005 -51.2366 -24.5377 0.523634 2.50575e-006 -37.4708 1.72386e-006 5.30222 0.852532 18.2561 -72.0648 39.0385 39.3397 33.3638 2.10362 14.835 0.588947 0.308273 6.35287 -99.6409 81.413 100.35 -0.0181409 2.7782e-005 -0.117315 -0.124139 0.00241112 -0.799296 -79.8382 79.5773 80.5374 -0.000225783 -0.000220919 2.21842e-005 -0.000956235 0.0001229 -2.73346e-005 -66.7416 80.4058 67.2171 -0.000437139 1.59488e-005 -2.73308e-005 -0.000136613 -0.000109287 -5.46551e-005 -6.42159 81.2158 8.01779 -0.000218575 1.69039e-005 0.000212131 0.000901572 -0.000184807 -0.000218578 -59.9282 75.5373 58.5147 -7.58354 4.86111 3.49106 -167.277 84.4999 48.8109 -174.922 13.3033 33.509 -8.56836e-006 28.0996 3.29745e-005 -79.6064 10.6624 0.609354 -5.12893e-006 15.4372 2.13592e-006 -12.0412 0.681964 -6.45934 -72.0648 39.0385 39.3397 33.3638 2.10361 14.835 0.588946 0.308273 6.35287 -99.6409 81.413 100.35 -0.0181409 3.00738e-005 -0.117315 -0.124139 0.00241113 -0.799296 -79.8382 79.5773 80.5374 -0.000260653 -0.000218571 2.3579e-005 -0.000956236 0.00012299 -2.73092e-005 -66.7416 80.4058 67.2171 -0.000437139 1.48768e-005 -2.73118e-005 -0.000136613 -0.000109289 -5.46294e-005 -6.42159 81.2158 8.01779 -0.000218572 1.95756e-005 0.000212307 0.000901575 -0.00019125 -0.000218553 0.000811311 0.56661 89.91 -31.4371 -4.58114 -18.7588 5.79648e-007 0.601214 -4.8358e-009 32.1412 3.63817 0.149677 -5.41222e-008 5.39687 -5.83845e-008 -50.8226 -2.7674 1.80739 -35.4947 -3.51421e-005 2.48727e-008 -180 -0.566579 -90.09 -14.6305 -5.29218 -15.563 -6.70005e-007 2.10542 -2.06591e-008 48.76 -3.99786 0.0607934 2.69899e-007 -6.0868 -2.85466e-007 -78.8908 -7.62023 1.93792 -36.2888 -2.26113 0.090606 
-350.967 170.019 -338.268 -93.74 -72.823 -96.0422 -180 4.29621e-031 -90 1.86437 -0.993915 -1.00407 3.71188 -2.02026 -1.97572 3.71188 -2.01983 -1.97575 -10.0084 7.13386 1.58647 15.563 7.34888 -0.119949 120.092 75.5343 58.4939 -11.6649 4.87116 4.43397 -167.277 84.4999 48.8109 143.231 -4.44358 22.614 2.31277e-006 14.476 3.01705e-005 -51.1556 -24.5907 0.523267 2.50876e-006 -37.5501 1.72569e-006 5.91742 0.94893 18.2056 -72.0648 39.0385 39.3397 33.3638 2.10362 14.835 0.588947 0.308273 6.35287 -99.6409 81.413 100.35 -0.0181409 2.7782e-005 -0.117315 -0.124139 0.00241112 -0.799296 -79.8382 79.5773 80.5374 -0.000225783 -0.000220919 2.21842e-005 -0.000956235 0.0001229 -2.73346e-005 -66.7416 80.4058 67.2171 -0.000437139 1.59488e-005 -2.73308e-005 -0.000136613 -0.000109287 -5.46551e-005 -6.42159 81.2158 8.01779 -0.000218575 1.69039e-005 0.000212131 0.000901572 -0.000184807 -0.000218578 -59.9282 75.5373 58.5147 -7.49032 4.56553 3.35859 -167.277 84.4999 48.8109 -175.089 13.3031 33.6655 -8.5554e-006 28.0797 3.29684e-005 -79.4336 10.6264 0.60894 -5.12677e-006 15.3814 2.13535e-006 -12.2622 0.678851 -6.3134 -72.0648 39.0385 39.3397 33.3638 2.10361 14.835 0.588946 0.308273 6.35287 -99.6409 81.413 100.35 -0.0181409 3.00738e-005 -0.117315 -0.124139 0.00241113 -0.799296 -79.8382 79.5773 80.5374 -0.000260653 -0.000218571 2.3579e-005 -0.000956236 0.00012299 -2.73092e-005 -66.7416 80.4058 67.2171 -0.000437139 1.48768e-005 -2.73118e-005 -0.000136613 -0.000109289 -5.46294e-005 -6.42159 81.2158 8.01779 -0.000218572 1.95756e-005 0.000212307 0.000901575 -0.00019125 -0.000218553 0.000811311 0.56661 89.91 -31.5475 -4.61231 -18.6101 5.79636e-007 0.465756 -4.8357e-009 32.1797 3.72092 0.101227 -5.39952e-008 5.52091 -5.83965e-008 -50.7663 -2.61268 1.69566 -35.4947 -3.50742e-005 8.02956e-008 -180 -0.566579 -90.09 -14.7167 -5.58315 -15.9198 -6.70088e-007 1.87762 -2.06563e-008 48.8015 -3.84934 0.0959041 2.71015e-007 -5.8641 -2.8535e-007 -78.9626 -7.52703 1.89074 -36.3109 -2.32408 0.09223 
-350.982 170.014 -338.205 -93.2886 -72.9844 -95.7247 -180 4.29621e-031 -90 1.82817 -1.01696 -1.04505 3.63836 -2.06702 -2.05762 3.63836 -2.06658 -2.05764 -10.017 7.14415 1.50022 15.8204 7.35373 0.212214 120.092 75.5343 58.4939 -11.5684 4.87433 4.41279 -167.277 84.4999 48.8109 143.342 -4.50809 22.6872 2.37619e-006 14.3593 3.01547e-005 -50.6987 -25.3214 0.523055 2.55097e-006 -38.6448 1.75174e-006 6.12028 1.0011 18.5625 -72.0648 39.0385 39.3397 33.3638 2.10362 14.835 0.588947 0.308273 6.35287 -99.6409 81.413 100.35 -0.0181409 2.7782e-005 -0.117315 -0.124139 0.00241112 -0.799296 -79.8382 79.5773 80.5374 -0.000225783 -0.000220919 2.21842e-005 -0.000956235 0.0001229 -2.73346e-005 -66.7416 80.4058 67.2171 -0.000437139 1.59488e-005 -2.73308e-005 -0.000136613 -0.000109287 -5.46551e-005 -6.42159 81.2158 8.01779 -0.000218575 1.69039e-005 0.000212131 0.000901572 -0.000184807 -0.000218578 -59.9282 75.5373 58.5147 -7.57707 4.35307 3.29773 -167.277 84.4999 48.8109 -175.003 13.2695 33.6214 -8.51366e-006 28.0157 3.29488e-005 -79.3776 10.615 0.608805 -5.12609e-006 15.3637 2.13517e-006 -12.2596 0.653753 -6.08173 -72.0648 39.0385 39.3397 33.3638 2.10361 14.835 0.588946 0.308273 6.35287 -99.6409 81.413 100.35 -0.0181409 3.00738e-005 -0.117315 -0.124139 0.00241113 -0.799296 -79.8382 79.5773 80.5374 -0.000260653 -0.000218571 2.3579e-005 -0.000956236 0.00012299 -2.73092e-005 -66.7416 80.4058 67.2171 -0.000437139 1.48768e-005 -2.73118e-005 -0.000136613 -0.000109289 -5.46294e-005 -6.42159 81.2158 8.01779 -0.000218572 1.95756e-005 0.000212307 0.000901575 -0.00019125 -0.000218553 0.000811311 0.56661 89.91 -31.6813 -4.50853 -18.3845 5.79639e-007 0.497253 -4.83572e-009 32.2394 3.65721 0.0723041 -5.40931e-008 5.42524 -5.83872e-008 -50.6974 -2.58297 1.67865 -35.4947 -3.49992e-005 1.34916e-007 -180 -0.566579 -90.09 -14.8961 -5.82973 -16.2594 -6.70158e-007 1.68109 -2.06541e-008 48.8572 -3.71931 0.114075 2.71991e-007 -5.66914 -2.85252e-007 -78.9977 -7.45899 1.85828 -36.3338 -2.38951 0.0939697 
-351.049 170.015 -338.143 -93.0264 -73.0363 -95.4343 -180 4.29621e-031 -90 1.79039 -1.00634 -1.05201 3.56282 -2.04532 -2.07254 3.56282 -2.04489 -2.07257 -9.9159 7.10538 1.4193 16.1678 7.31205 0.514422 120.092 75.5343 58.4939 -11.573 4.97575 4.45605 -167.277 84.4999 48.8109 143.469 -4.56842 22.7346 2.43866e-006 14.2443 3.01393e-005 -50.1375 -26.3438 0.523437 2.61226e-006 -40.1766 1.79065e-006 6.24912 1.0521 19.0953 -72.0648 39.0385 39.3397 33.3638 2.10362 14.835 0.588947 0.308273 6.35287 -99.6409 81.413 100.35 -0.0181409 2.7782e-005 -0.117315 -0.124139 0.00241112 -0.799296 -79.8382 79.5773 80.5374 -0.000225783 -0.000220919 2.21842e-005 -0.000956235 0.0001229 -2.73346e-005 -66.7416 80.4058 67.2171 -0.000437139 1.59488e-005 -2.73308e-005 -0.000136613 -0.000109287 -5.46551e-005 -6.42159 81.2158 8.01779 -0.000218575 1.69039e-005 0.000212131 0.000901572 -0.000184807 -0.000218578 -59.9282 75.5373 58.5147 -7.74923 4.16894 3.26602 -167.277 84.4999 48.8109 -174.684 13.2276 33.4691 -8.44251e-006 27.9063 3.29154e-005 -79.3165 10.7403 0.60893 -5.13333e-006 15.551 2.1371e-006 -12.2779 0.62886 -5.84182 -72.0648 39.0385 39.3397 33.3638 2.10361 14.835 0.588946 0.308273 6.35287 -99.6409 81.413 100.35 -0.0181409 3.00738e-005 -0.117315 -0.124139 0.00241113 -0.799296 -79.8382 79.5773 80.5374 -0.000260653 -0.000218571 2.3579e-005 -0.000956236 0.00012299 -2.73092e-005 -66.7416 80.4058 67.2171 -0.000437139 1.48768e-005 -2.73118e-005 -0.000136613 -0.000109289 -5.46294e-005 -6.42159 81.2158 8.01779 -0.000218572 1.95756e-005 0.000212307 0.000901575 -0.00019125 -0.000218553 0.000811311 0.56661 89.91 -31.7501 -4.4052 -18.3867 5.79651e-007 0.635799 -4.83584e-009 32.2968 3.58186 0.0859545 -5.42089e-008 5.31209 -5.83764e-008 -50.6911 -2.63795 1.72049 -35.4947 -3.49171e-005 1.88715e-007 -180 -0.566579 -90.09 -14.8869 -5.81307 -16.1541 -6.70173e-007 1.64049 -2.06537e-008 48.845 -3.76933 0.0811894 2.71615e-007 -5.74414 -2.85289e-007 -78.9746 -7.51333 1.88367 -36.3594 -2.46282 0.0956362 
